# Blender v2.79 (sub 0) OBJ File: 'casa.blend'
# www.blender.org
mtllib casa.mtl
o Cubo.001
v -2.689765 -2.356675 5.824373
v -2.689765 -2.356675 3.824373
v -2.142451 2.037825 4.301945
v 2.628327 -2.356675 5.824373
v 1.966989 2.037825 5.531182
v 2.628327 -2.356675 3.824373
v 1.966989 2.037825 4.181482
v -2.655274 0.472317 5.824373
v -2.655274 0.472317 3.824373
v 2.609407 0.438110 3.824373
v 2.609407 0.438110 5.824373
v 2.505017 1.202321 4.062359
v 2.505017 1.202321 5.626460
v 2.942193 0.469187 3.824373
v 2.942193 0.469187 5.824373
v -2.979103 0.506677 5.824373
v -2.340854 1.673102 5.824373
v -2.340854 1.673102 4.100214
v -2.979103 0.506677 3.824373
v -2.039776 -2.356675 3.824373
v -1.640186 2.037825 4.496803
v -2.039776 -2.356675 5.824373
v -1.640186 2.037825 5.367846
v -2.011813 0.468136 5.824373
v -2.011813 0.468136 3.824373
v -1.058016 2.037825 4.496803
v -1.286380 -2.356675 5.824373
v -1.265983 0.463290 3.824373
v -1.286380 -2.356675 3.824373
v -1.058016 2.037825 5.367846
v -1.265983 0.463290 5.824373
v -1.046613 2.953259 5.367846
v -1.628784 2.953259 5.367846
v -1.628784 2.953259 4.496802
v -1.046613 2.953259 4.496802
v -1.049179 2.747286 5.367846
v -1.631349 2.747286 5.367846
v -1.049179 2.747286 4.496802
v -1.631349 2.747286 4.496802
v -0.898207 2.951979 4.496802
v -0.898207 2.951979 5.367846
v -0.900773 2.746006 5.367846
v -0.900773 2.746006 4.496802
v -1.780302 2.958271 4.496802
v -1.780302 2.958271 5.367846
v -1.782868 2.752298 4.496802
v -1.782868 2.752298 5.367846
v -2.655274 0.472317 6.610380
v -2.128884 2.055686 6.089424
v -1.640186 2.037825 6.084373
v 1.966989 2.037825 6.084373
v 2.609407 0.438110 6.610380
v -2.011813 0.468136 6.610380
v 2.505017 1.202321 6.347720
v 2.942193 0.469187 6.610380
v -2.979103 0.506677 6.610380
v -2.320936 1.673102 6.202481
v -2.128884 2.055685 5.829424
v -1.058016 2.037825 6.084373
v -1.265983 0.463290 6.610380
v -1.058016 2.037825 3.924373
v 1.966989 2.037825 3.905294
v -2.142451 2.037825 3.924373
v -2.655274 0.472317 3.343148
v 2.609407 0.438110 3.343148
v -1.265983 0.463290 3.343148
v 2.505017 1.202321 3.624124
v 2.942193 0.469187 3.343148
v -2.340854 1.673102 3.809372
v -2.979103 0.506677 3.343148
v -1.640186 2.037825 3.924373
v -2.011813 0.468136 3.343148
v -2.689765 -2.356675 4.458436
v 2.628327 -2.356675 4.458436
v 1.966989 2.037825 4.609379
v 2.609407 0.438110 4.458436
v -2.655274 0.472317 4.458436
v 2.505017 1.202321 4.558228
v 2.942193 0.469187 4.458436
v -2.340854 1.673102 4.646827
v -2.979103 0.506677 4.458436
v -2.138150 2.043487 4.786204
v -1.640186 2.037825 4.772951
v -2.039776 -2.356675 4.458436
v -1.058016 2.037825 4.772951
v -1.286380 -2.356675 4.458436
v -1.628784 2.953259 4.685324
v -1.046613 2.953259 4.685324
v -1.631349 2.747286 4.772951
v -1.049179 2.747286 4.772951
v -0.898207 2.951979 4.772951
v -0.900773 2.746006 4.772951
v -1.780302 2.958271 4.772951
v -1.782868 2.752298 4.772951
v -2.689765 -2.356675 5.399843
v 1.966989 2.037825 5.244688
v 2.609407 0.438110 5.399843
v 2.505017 1.202321 5.294456
v 2.942193 0.469187 5.399843
v -2.131764 2.051894 5.505194
v -1.640186 2.037825 5.182954
v -2.039776 -2.356675 5.399843
v -1.058016 2.037825 5.182954
v -1.286380 -2.356675 5.399843
v -1.628784 2.953259 5.182954
v -1.046613 2.953259 5.182954
v -1.049179 2.747286 5.182954
v -0.898207 2.951979 5.182954
v -0.900773 2.746006 5.182954
v -1.780302 2.958271 5.182954
v 2.628327 -2.356675 5.399843
v -2.655274 0.472317 5.399843
v -2.340854 1.673102 5.458395
v -2.979103 0.506677 5.399843
v -1.631349 2.747286 5.182954
v -1.782868 2.752298 5.182954
v -1.628784 2.740497 4.685324
v -1.046613 2.740497 4.685324
v -1.628784 2.740497 5.182954
v -1.046613 2.740497 5.182954
vn -0.8780 0.4786 0.0010
vn -0.1055 -0.9944 0.0000
vn 0.8408 0.5414 -0.0000
vn -0.0065 -1.0000 0.0000
vn 0.0000 -1.0000 0.0000
vn -0.0118 0.3246 0.9458
vn 0.0000 0.0000 1.0000
vn 1.0000 0.0068 0.0000
vn -0.0000 0.0000 -1.0000
vn -0.9999 0.0122 0.0000
vn 0.8589 0.5122 0.0000
vn 0.0930 -0.9957 0.0000
vn 0.0000 1.0000 0.0000
vn -0.8773 0.4800 0.0000
vn 0.0070 0.9999 -0.0075
vn 0.0331 0.9995 0.0000
vn -0.9999 0.0125 0.0000
vn 0.9999 -0.0125 0.0000
vn -0.0086 -1.0000 0.0000
vn 0.0086 1.0000 0.0000
vn -0.0331 -0.9995 0.0000
vn 0.0163 0.3270 0.9449
vn -0.8824 0.4698 0.0275
vn 0.0365 0.9993 -0.0000
vn 0.0012 0.3171 0.9484
vn 0.0011 0.3147 0.9492
vn -0.8729 0.4877 0.0149
vn 0.0103 0.3125 0.9499
vn -0.0014 0.3387 -0.9409
vn 0.0180 0.3472 -0.9376
vn -0.0283 0.3682 -0.9293
vn 0.0013 0.3473 -0.9377
vn 0.0013 0.3466 -0.9380
vn -0.8784 0.4779 0.0000
vn 0.0174 0.9998 -0.0075
vn -0.8764 0.4815 0.0010
vn -0.8751 0.4839 0.0010
vn 0.0265 0.9996 -0.0076
vn 1.0000 0.0000 0.0000
vn -1.0000 0.0000 0.0000
usemtl None
s off
f 80//1 82//1 3//1 18//1
f 9//2 19//2 70//2 64//2
f 13//3 5//3 51//3 54//3
f 24//4 31//4 60//4 53//4
f 104//5 111//5 4//5 27//5
f 56//6 48//6 49//6 57//6
f 22//7 24//7 8//7 1//7
f 111//8 97//8 11//8 4//8
f 29//9 28//9 10//9 6//9
f 73//10 77//10 9//10 2//10
f 99//11 98//11 13//11 15//11
f 96//3 5//3 13//3 98//3
f 76//12 10//12 14//12 79//12
f 21//13 26//13 61//13 71//13
f 81//14 80//14 18//14 19//14
f 10//4 28//4 66//4 65//4
f 5//13 30//13 59//13 51//13
f 2//9 9//9 25//9 20//9
f 27//7 31//7 24//7 22//7
f 37//7 36//7 32//7 33//7
f 95//5 102//5 22//5 1//5
f 82//15 83//15 21//15 3//15
f 28//4 25//4 72//4 66//4
f 31//4 11//4 52//4 60//4
f 96//13 103//13 30//13 5//13
f 4//7 11//7 31//7 27//7
f 20//9 25//9 28//9 29//9
f 102//5 104//5 27//5 22//5
f 19//14 18//14 69//14 70//14
f 106//13 105//13 33//13 32//13
f 38//9 35//9 40//9 43//9
f 38//9 39//9 34//9 35//9
f 87//16 34//16 44//16 93//16
f 101//17 23//17 37//17 115//17
f 26//9 21//9 39//9 38//9
f 85//18 26//18 38//18 90//18
f 23//7 30//7 36//7 37//7
f 92//18 43//18 40//18 91//18
f 90//19 38//19 43//19 92//19
f 106//20 32//20 41//20 108//20
f 32//7 36//7 42//7 41//7
f 116//17 47//17 45//17 110//17
f 37//7 33//7 45//7 47//7
f 34//9 39//9 46//9 44//9
f 115//21 37//21 47//21 116//21
f 51//22 52//22 55//22 54//22
f 57//23 49//23 58//23 17//23
f 50//24 23//24 58//24 49//24
f 60//25 59//25 50//25 53//25
f 52//26 51//26 59//26 60//26
f 112//2 8//2 16//2 114//2
f 30//13 23//13 50//13 59//13
f 11//12 15//12 55//12 52//12
f 56//2 16//2 8//2 48//2
f 15//11 13//11 54//11 55//11
f 17//27 16//27 56//27 57//27
f 53//28 50//28 49//28 48//28
f 8//4 24//4 53//4 48//4
f 66//29 61//29 62//29 65//29
f 65//30 62//30 67//30 68//30
f 63//31 64//31 70//31 69//31
f 64//32 63//32 71//32 72//32
f 72//33 71//33 61//33 66//33
f 12//11 14//11 68//11 67//11
f 25//4 9//4 64//4 72//4
f 7//3 12//3 67//3 62//3
f 18//34 3//34 63//34 69//34
f 26//13 7//13 62//13 61//13
f 3//13 21//13 71//13 63//13
f 14//12 10//12 65//12 68//12
f 9//2 77//2 81//2 19//2
f 39//21 89//21 94//21 46//21
f 46//17 94//17 93//17 44//17
f 35//20 88//20 91//20 40//20
f 107//19 90//19 92//19 109//19
f 109//18 92//18 91//18 108//18
f 103//18 85//18 90//18 107//18
f 21//17 83//17 89//17 39//17
f 105//16 87//16 93//16 110//16
f 35//13 34//13 87//13 88//13
f 20//5 29//5 86//5 84//5
f 7//13 26//13 85//13 75//13
f 100//35 101//35 83//35 82//35
f 2//5 20//5 84//5 73//5
f 114//14 113//14 80//14 81//14
f 97//12 76//12 79//12 99//12
f 7//3 75//3 78//3 12//3
f 14//11 12//11 78//11 79//11
f 95//10 112//10 77//10 73//10
f 6//8 10//8 76//8 74//8
f 29//5 6//5 74//5 86//5
f 113//36 100//36 82//36 80//36
f 17//37 58//37 100//37 113//37
f 1//10 8//10 112//10 95//10
f 11//12 97//12 99//12 15//12
f 16//14 17//14 113//14 114//14
f 58//38 23//38 101//38 100//38
f 33//16 105//16 110//16 45//16
f 30//18 103//18 107//18 36//18
f 42//18 109//18 108//18 41//18
f 36//19 107//19 109//19 42//19
f 77//2 112//2 114//2 81//2
f 89//21 115//21 116//21 94//21
f 94//17 116//17 110//17 93//17
f 88//20 106//20 108//20 91//20
f 83//17 101//17 115//17 89//17
f 87//39 105//39 119//39 117//39
f 84//5 86//5 104//5 102//5
f 75//13 85//13 103//13 96//13
f 73//5 84//5 102//5 95//5
f 75//3 96//3 98//3 78//3
f 79//11 78//11 98//11 99//11
f 74//8 76//8 97//8 111//8
f 86//5 74//5 111//5 104//5
f 118//13 117//13 119//13 120//13
f 106//40 88//40 118//40 120//40
f 88//7 87//7 117//7 118//7
f 105//9 106//9 120//9 119//9
o Cubo
v -1.779479 1.072170 7.684779
v -0.671045 2.893441 6.525827
v -1.779479 1.072170 2.417545
v -0.671045 2.893441 3.576498
v 1.968885 1.072170 7.684779
v 0.799638 2.887923 6.525827
v 1.968885 1.072170 2.417545
v 0.799638 2.887923 3.576498
vn -0.8542 0.5199 0.0000
vn 0.0006 0.5374 -0.8433
vn 0.8408 0.5414 0.0000
vn 0.0006 0.5374 0.8433
vn 0.0000 -1.0000 0.0000
vn 0.0038 1.0000 0.0000
usemtl None
s off
f 121//41 122//41 124//41 123//41
f 123//42 124//42 128//42 127//42
f 127//43 128//43 126//43 125//43
f 125//44 126//44 122//44 121//44
f 123//45 127//45 125//45 121//45
f 128//46 124//46 122//46 126//46
o Cube
v -1.025867 -0.718932 6.684800
v -0.594698 -0.712334 6.684800
v -0.097542 -0.692538 6.684800
v -1.251685 1.085517 6.684800
v -0.515085 1.085517 6.684800
v 0.221514 1.085517 6.684800
v 0.221514 1.085517 2.963038
v -0.515085 1.085517 2.963038
v -1.251685 1.085517 2.963038
v -1.311930 -2.362585 2.963038
v -0.541124 -2.362585 2.963038
v 0.229683 -2.362585 2.963038
v 0.229683 -2.362585 6.684800
v -0.541124 -2.362585 6.684800
v -1.311930 -2.362585 6.684800
v -1.298273 -1.917486 6.684800
v -0.541820 -1.910888 6.684800
v 0.029873 -1.904289 6.684800
v -1.028701 0.165898 6.684800
v -0.614582 0.156290 6.684800
v -0.099585 0.169487 6.684800
v 0.029873 -1.904289 2.963038
v -0.541820 -1.910888 2.963038
v -1.298273 -1.917486 2.963038
v -0.097542 -0.692538 2.963038
v -0.594698 -0.712334 2.963038
v -1.025867 -0.718932 2.963038
v -0.099585 0.169487 2.963038
v -0.614582 0.156290 2.963038
v -1.028701 0.165898 2.963038
v 1.578313 -1.897691 6.684800
v 1.554611 -0.718932 6.684800
v 1.537507 0.143093 6.684800
v -1.446288 0.143093 6.684800
v -1.463391 -0.718932 6.684800
v -1.480495 -1.917486 6.684800
v -1.480495 -1.917486 2.963038
v -1.463391 -0.718932 2.963038
v -1.446288 0.143093 2.963038
v 1.578313 -1.897691 2.963038
v 1.554611 -0.718932 2.963038
v 1.537507 0.143093 2.963038
v 1.518808 1.085517 2.963038
v 1.587223 -2.362585 2.963038
v 1.518808 1.085517 6.684800
v 1.587223 -2.362585 6.684800
v -1.427589 1.085517 2.963038
v -1.496003 -2.362585 2.963038
v -1.427589 1.085517 6.684800
v -1.496003 -2.362585 6.684800
v 0.201367 -1.895384 6.684800
v 0.358073 0.197868 2.963038
v 0.191183 -0.697151 2.963038
v 0.201367 -1.895384 2.963038
v 0.400937 -2.362585 6.684800
v 0.448226 1.085517 2.963038
v 0.358073 0.197868 6.684800
v 0.400937 -2.362585 2.963038
v 0.448226 1.085517 6.684800
v 0.191183 -0.697151 6.684800
v 1.083259 0.166806 2.963038
v 1.252729 -0.734811 2.963038
v 1.246241 -1.896350 2.963038
v 1.040927 -2.362585 6.684800
v 1.001975 1.085517 2.963038
v 1.246241 -1.896350 6.684800
v 1.083259 0.166806 6.684800
v 1.040927 -2.362585 2.963038
v 1.001975 1.085517 6.684800
v 1.252729 -0.734811 6.684800
v 0.723804 -1.905765 6.684800
v 0.714067 0.327506 6.684800
v 0.720932 -2.362585 2.963038
v 0.725100 1.085517 6.684800
v -0.097542 -0.692538 6.106959
v 0.714067 0.327506 2.963038
v 0.721956 -0.715981 2.963038
v 0.723804 -1.905765 2.963038
v 0.720932 -2.362585 6.684800
v 0.725100 1.085517 2.963038
v -0.098564 -0.261525 6.684800
v -0.098564 -0.261525 2.963038
v -1.027284 -0.276517 2.963038
v 1.546059 -0.287920 2.963038
v -1.454840 -0.287920 2.963038
v -1.454840 -0.287920 6.684800
v 1.546059 -0.287920 6.684800
v -0.604640 -0.278022 2.963038
v -1.027284 -0.276517 6.684800
v 0.029873 -1.904289 7.362960
v 0.175649 -0.144064 6.684800
v 0.175649 -0.144064 2.963038
v 1.266973 -0.119038 6.684800
v 1.266973 -0.119038 2.963038
v 0.718012 -0.194238 2.963038
v -0.098564 -0.261525 6.106959
v 1.745202 -1.895554 2.963038
v 1.754112 -2.360449 2.963038
v 1.754112 -2.360449 6.684800
v 1.745202 -1.895554 6.684800
v 0.723804 -1.905765 6.106959
v 0.201367 -1.895384 6.106959
v 0.714067 0.327506 6.106959
v 0.358073 0.197868 6.106959
v 0.721956 -0.715981 6.106959
v 0.191183 -0.697151 6.106959
v 0.175649 -0.144064 6.106959
v 1.266973 -0.119038 6.106959
v 1.252729 -0.734811 6.106959
v 1.246241 -1.896350 6.106959
v 1.083259 0.166806 6.106959
v 0.718012 -0.194238 6.106959
v -0.594698 -0.712334 6.106959
v -0.099585 0.169487 6.106959
v -0.614582 0.156290 6.106959
v -1.028701 0.165898 6.106959
v -1.025867 -0.718932 6.106959
v -1.027284 -0.276517 6.106959
v -0.604640 -0.278022 6.106959
v 0.229683 -2.362585 7.362960
v -1.311930 -2.362585 7.362960
v -0.541124 -2.362585 7.362960
v -0.541820 -1.910888 7.362960
v -1.298273 -1.917486 7.362960
v 0.201367 -1.895384 7.362960
v -1.480495 -1.917486 7.362960
v 1.040927 -2.362585 7.362960
v 1.587223 -2.362585 7.362960
v 1.578313 -1.897691 7.362960
v -1.496003 -2.362585 7.362960
v 0.723804 -1.905765 7.362960
v 0.400937 -2.362585 7.362960
v 0.720932 -2.362585 7.362960
v 1.246241 -1.896350 7.362960
v 1.745202 -1.895554 7.362960
v 1.754112 -2.360449 7.362960
vn -0.9998 0.0198 0.0000
vn 0.0000 0.0000 -1.0000
vn 0.9998 0.0198 0.0000
vn 0.0000 0.0000 1.0000
vn -0.0000 -1.0000 0.0000
vn 0.0000 1.0000 0.0000
vn -0.9994 0.0348 0.0000
vn 0.0128 -0.9999 0.0000
vn 0.9998 0.0201 0.0000
vn -0.9999 0.0143 0.0000
vn -0.0128 0.9999 0.0000
vn 0.0256 -0.9997 0.0000
vn -0.0519 0.9987 0.0000
vn 0.0040 1.0000 0.0000
vn -1.0000 -0.0024 0.0000
vn 0.0199 0.9998 0.0000
vn 0.9996 0.0281 0.0000
vn -0.3991 -0.9169 0.0000
vn 0.8823 -0.4707 0.0000
vn 0.9998 0.0192 0.0000
vn -0.8412 -0.5407 0.0000
vn -1.0000 0.0056 0.0000
vn 1.0000 0.0032 0.0000
vn -0.0153 0.9999 0.0000
vn -0.9997 0.0231 0.0000
vn -0.0180 0.9998 0.0000
vn 0.3422 -0.9396 0.0000
vn 1.0000 0.0085 0.0000
vn -0.0398 0.9992 0.0000
vn -0.0232 -0.9997 0.0000
vn -0.0087 1.0000 0.0000
vn -0.0115 0.9999 0.0000
usemtl Material
s off
f 162//47 177//47 175//47 167//47
f 189//48 193//48 171//48 170//48
f 170//49 171//49 173//49 161//49
f 147//50 132//50 177//50 162//50
f 196//51 172//51 174//51 192//51
f 137//52 175//52 177//52 132//52
f 164//53 178//53 258//53 254//53
f 144//50 129//50 163//50 164//50
f 217//50 147//50 162//50 214//50
f 174//54 172//54 226//54 227//54
f 168//55 169//55 160//55 159//55
f 212//49 170//49 161//49 215//49
f 176//51 138//51 143//51 178//51
f 136//52 137//52 132//52 133//52
f 135//52 136//52 133//52 134//52
f 184//52 135//52 134//52 187//52
f 196//48 191//48 168//48 172//48
f 191//48 190//48 169//48 168//48
f 222//48 189//48 170//48 212//48
f 178//53 164//53 165//53 176//53
f 164//56 163//56 166//56 165//56
f 214//47 162//47 167//47 213//47
f 213//48 167//48 158//48 211//48
f 211//48 158//48 157//48 216//48
f 216//48 157//48 156//48 210//48
f 165//48 166//48 155//48 152//48
f 152//48 155//48 154//48 151//48
f 151//48 154//48 153//48 150//48
f 138//51 139//51 142//51 143//51
f 185//50 187//50 134//50 149//50
f 148//50 133//50 132//50 147//50
f 158//48 137//48 136//48 157//48
f 176//48 165//48 152//48 138//48
f 138//48 152//48 151//48 139//48
f 139//48 151//48 150//48 140//48
f 219//50 185//50 149//50 209//50
f 228//57 159//57 257//57 263//57
f 145//50 130//50 129//50 144//50
f 179//50 188//50 131//50 146//50
f 149//58 148//58 243//58 242//58
f 179//59 146//59 218//59 253//59
f 159//60 194//60 262//60 257//60
f 146//50 131//50 130//50 145//50
f 131//61 209//61 224//61 203//61
f 157//48 136//48 135//48 156//48
f 167//48 175//48 137//48 158//48
f 149//50 134//50 133//50 148//50
f 139//51 140//51 141//51 142//51
f 183//51 207//51 261//51 260//51
f 179//62 199//62 229//62 230//62
f 219//63 188//63 234//63 235//63
f 200//50 202//50 187//50 185//50
f 210//48 156//48 180//48 220//48
f 150//48 153//48 181//48 182//48
f 140//48 150//48 182//48 186//48
f 208//52 184//52 187//52 202//52
f 140//51 186//51 183//51 141//51
f 156//48 135//48 184//48 180//48
f 171//52 193//52 197//52 173//52
f 161//50 173//50 197//50 195//50
f 215//50 161//50 195//50 221//50
f 159//50 160//50 198//50 194//50
f 144//52 164//52 254//52 252//52
f 223//48 204//48 189//48 222//48
f 206//48 205//48 190//48 191//48
f 201//48 206//48 191//48 196//48
f 201//51 196//51 192//51 207//51
f 204//48 208//48 193//48 189//48
f 180//48 184//48 208//48 204//48
f 186//51 201//51 207//51 183//51
f 186//48 182//48 206//48 201//48
f 182//48 181//48 205//48 206//48
f 220//48 180//48 204//48 223//48
f 193//52 208//52 202//52 197//52
f 195//50 197//50 202//50 200//50
f 195//64 200//64 231//64 239//64
f 185//65 219//65 235//65 232//65
f 227//66 228//66 263//66 264//66
f 221//67 195//67 239//67 236//67
f 181//48 220//48 223//48 205//48
f 205//48 223//48 222//48 190//48
f 160//50 215//50 221//50 198//50
f 153//48 210//48 220//48 181//48
f 194//68 198//68 237//68 238//68
f 217//69 129//69 245//69 246//69
f 129//70 130//70 241//70 245//70
f 188//50 219//50 209//50 131//50
f 154//48 216//48 210//48 153//48
f 155//48 211//48 216//48 154//48
f 166//48 213//48 211//48 155//48
f 163//47 214//47 213//47 166//47
f 190//48 222//48 212//48 169//48
f 169//49 212//49 215//49 160//49
f 129//50 217//50 214//50 163//50
f 226//66 225//66 228//66 227//66
f 192//51 174//51 256//51 255//51
f 172//48 168//48 225//48 226//48
f 168//57 159//57 228//57 225//57
f 229//50 233//50 234//50 230//50
f 240//50 231//50 232//50 235//50
f 236//50 239//50 231//50 240//50
f 238//50 237//50 233//50 229//50
f 237//50 236//50 240//50 233//50
f 233//50 240//50 235//50 234//50
f 198//71 221//71 236//71 237//71
f 199//72 194//72 238//72 229//72
f 200//73 185//73 232//73 231//73
f 188//74 179//74 230//74 234//74
f 224//50 242//50 243//50 247//50
f 247//50 243//50 244//50 246//50
f 241//50 247//50 246//50 245//50
f 203//50 224//50 247//50 241//50
f 130//75 131//75 203//75 241//75
f 148//76 147//76 244//76 243//76
f 147//69 217//69 246//69 244//69
f 209//61 149//61 242//61 224//61
f 249//50 252//50 254//50 258//50
f 248//50 218//50 251//50 250//50
f 250//50 251//50 252//50 249//50
f 260//50 253//50 218//50 248//50
f 261//50 259//50 253//50 260//50
f 256//50 257//50 262//50 255//50
f 255//50 262//50 259//50 261//50
f 257//50 256//50 264//50 263//50
f 142//51 141//51 248//51 250//51
f 145//77 144//77 252//77 251//77
f 174//54 227//54 264//54 256//54
f 194//72 199//72 259//72 262//72
f 178//51 143//51 249//51 258//51
f 207//51 192//51 255//51 261//51
f 199//62 179//62 253//62 259//62
f 143//51 142//51 250//51 249//51
f 146//78 145//78 251//78 218//78
f 141//51 183//51 260//51 248//51
